<?xml version="1.0" standalone="no"?>
<!DOCTYPE svg PUBLIC "-//W3C//DTD SVG 20010904//EN"
 "http://www.w3.org/TR/2001/REC-SVG-20010904/DTD/svg10.dtd">
<svg version="1.0" xmlns="http://www.w3.org/2000/svg"
 width="564.000000pt" height="564.000000pt" viewBox="0 0 564.000000 564.000000"
 preserveAspectRatio="xMidYMid meet">
<metadata>
Created by potrace 1.14, written by Peter Selinger 2001-2017
</metadata>
<g transform="translate(0.000000,564.000000) scale(0.100000,-0.100000)"
fill="#000000" stroke="none">
<path d="M3649 5328 c-3 -36 -7 -96 -13 -218 -8 -143 -12 -221 -21 -390 -8
-137 -13 -240 -20 -373 -3 -60 -7 -148 -10 -195 -3 -48 -7 -134 -10 -192 -3
-58 -8 -143 -11 -190 -3 -47 -7 -127 -9 -178 -11 -239 -16 -287 -35 -328 -20
-41 -74 -80 -121 -87 l-24 -4 0 -204 0 -203 92 -1 c55 0 94 4 94 10 1 6 3 53
4 105 1 52 3 100 4 107 1 9 91 11 363 10 l361 -2 0 -110 c0 -60 4 -112 8 -115
6 -4 79 -5 167 -1 l22 1 0 199 c0 150 -3 200 -12 203 -7 3 -34 4 -60 3 -43 -2
-46 0 -50 24 -1 14 -3 502 -2 1084 l0 1057 -358 0 c-279 0 -358 -3 -359 -12z
m516 -169 c7 -8 12 -1978 5 -1980 -15 -4 -437 -5 -447 -1 -7 2 -10 9 -6 16 4
6 8 16 9 21 11 56 14 89 19 210 11 227 14 295 20 395 2 52 7 142 10 200 6 130
14 279 20 390 2 47 7 141 10 210 4 69 8 152 10 185 2 33 7 125 10 205 4 80 8
147 10 150 5 8 322 6 330 -1z"/>
<path d="M4654 5308 c11 -63 21 -108 87 -403 25 -110 36 -159 44 -205 3 -19 8
-41 10 -48 3 -8 21 -89 41 -180 20 -92 37 -174 39 -182 10 -44 37 -167 40
-183 2 -10 6 -26 9 -35 3 -9 8 -33 11 -52 3 -19 8 -43 11 -52 3 -9 7 -25 9
-35 8 -40 76 -349 81 -368 10 -39 11 -78 3 -114 -4 -20 -10 -47 -12 -61 -50
-267 -153 -396 -342 -427 -16 -3 -31 -6 -33 -8 -2 -1 -4 -42 -4 -90 -1 -60 2
-89 11 -94 7 -5 49 -2 93 5 152 24 267 102 355 241 26 41 48 78 48 82 1 3 11
28 23 55 12 27 24 58 27 70 2 12 9 39 14 61 6 22 13 56 16 75 3 19 15 73 25
120 10 47 21 99 24 115 3 17 8 39 10 50 2 11 14 67 26 125 20 99 24 118 34
173 3 12 12 56 21 97 9 41 19 90 21 109 2 19 6 37 9 41 2 4 7 22 10 41 3 19
20 102 36 184 17 83 33 159 35 170 2 11 7 34 11 50 3 17 7 37 9 45 1 8 11 60
23 114 12 55 23 114 25 132 3 18 7 37 10 42 3 5 7 24 10 43 2 19 16 90 31 159
14 69 28 135 31 148 4 22 3 22 -101 22 -104 0 -106 0 -115 -25 -5 -14 -9 -29
-9 -33 1 -4 1 -9 -1 -12 -1 -3 -3 -16 -6 -30 -4 -22 -23 -115 -30 -145 -4 -17
-16 -79 -20 -100 -6 -36 -15 -80 -19 -95 -2 -8 -7 -31 -10 -50 -3 -19 -11 -55
-16 -80 -8 -36 -92 -446 -113 -550 -3 -14 -8 -36 -11 -50 -3 -14 -11 -51 -16
-82 -6 -32 -14 -58 -18 -58 -3 0 -20 64 -36 143 -33 161 -30 144 -38 177 -8
34 -58 259 -63 290 -3 14 -12 54 -20 90 -8 36 -19 85 -24 110 -5 25 -11 54
-14 65 -2 11 -14 64 -26 119 -12 54 -23 106 -25 115 -2 9 -12 57 -23 106 l-19
90 -107 3 -108 3 6 -33z"/>
<path d="M2093 5083 c-39 -43 -84 -94 -99 -113 -16 -19 -32 -36 -36 -38 -5 -2
-8 -10 -8 -17 0 -7 -3 -15 -7 -17 -11 -4 -103 -146 -103 -157 0 -6 -9 -25 -19
-43 -18 -31 -71 -179 -87 -243 -4 -16 -9 -37 -11 -45 -15 -59 -26 -172 -25
-248 3 -165 75 -338 188 -450 24 -24 44 -49 46 -55 2 -10 -9 -101 -17 -147 -3
-15 -16 -119 -21 -155 -2 -25 -13 -98 -18 -134 -3 -14 -7 -46 -11 -71 -4 -25
-9 -58 -11 -75 -3 -16 -7 -41 -9 -55 -2 -14 -7 -43 -10 -65 -3 -22 -7 -51 -9
-65 -1 -14 -5 -31 -9 -37 -4 -6 -4 -19 0 -30 3 -10 3 -15 -2 -11 -6 6 -21 67
-41 164 -13 66 -99 240 -149 301 -5 7 -26 32 -45 56 -19 23 -59 63 -88 87 -29
25 -58 50 -65 56 -30 26 -160 95 -242 126 -80 32 -183 62 -254 75 -13 2 -29 5
-35 6 -12 2 -12 -22 -2 -115 3 -32 8 -84 11 -115 13 -131 21 -172 55 -275 72
-215 194 -386 365 -513 114 -84 305 -172 390 -179 37 -3 40 -5 39 -32 -1 -27
-8 -82 -19 -144 -12 -66 -17 -97 -20 -120 -2 -14 -6 -38 -9 -55 -3 -16 -8 -43
-11 -60 -3 -16 -8 -41 -11 -55 -3 -14 -6 -36 -8 -50 -2 -14 -8 -52 -14 -85 -6
-33 -14 -73 -17 -90 -2 -16 -7 -41 -10 -55 -3 -14 -8 -38 -10 -55 -3 -16 -9
-46 -12 -65 -4 -19 -7 -38 -8 -42 0 -13 -12 -18 -12 -6 -6 111 -76 297 -157
418 -153 229 -354 353 -703 434 l-62 14 4 -51 c18 -235 32 -331 67 -442 97
-310 292 -525 598 -658 42 -18 130 -47 156 -51 28 -5 25 -17 -48 -174 -17 -35
-61 -109 -98 -165 -101 -151 -203 -251 -332 -330 -164 -99 -264 -116 -683
-112 -171 1 -316 0 -323 -3 -29 -10 -3 -91 37 -115 30 -18 28 -17 431 -19 245
-1 274 0 409 27 152 29 348 159 476 316 22 26 76 97 86 112 4 5 17 3 30 -6 29
-18 172 -54 254 -64 376 -43 660 85 863 388 27 41 54 84 60 96 13 23 16 21
-63 38 -11 2 -65 16 -120 31 -136 36 -323 41 -444 13 -157 -36 -300 -113 -404
-215 l-48 -47 21 53 c28 72 87 266 94 314 4 21 8 41 10 45 3 3 7 26 11 51 4
25 8 47 10 50 2 3 6 23 9 45 4 22 9 47 11 55 3 8 7 32 9 54 9 64 15 75 39 70
32 -8 205 -7 268 1 113 13 236 42 329 76 68 25 195 91 234 122 37 29 155 145
183 178 76 95 179 303 209 424 2 6 6 19 9 31 6 20 4 20 -202 18 -185 -2 -237
-6 -320 -28 -13 -3 -31 -8 -42 -10 -193 -43 -437 -210 -556 -382 -19 -27 -42
-58 -50 -69 -8 -10 -15 -25 -15 -33 0 -7 -4 -11 -9 -7 -6 3 -6 18 -1 36 5 17
12 57 16 88 3 31 8 58 9 61 3 5 11 50 20 117 2 15 9 60 15 98 7 39 13 81 15
95 2 14 6 43 10 65 3 22 8 51 10 65 9 60 19 126 21 133 1 4 2 15 3 25 1 15 11
17 80 16 93 -2 224 18 337 50 314 91 532 264 663 523 28 58 85 215 95 263 2
14 9 49 15 79 16 77 17 74 -41 67 -29 -4 -67 -9 -84 -11 -17 -2 -59 -7 -93
-10 -34 -4 -72 -8 -84 -11 -12 -2 -36 -6 -54 -9 -57 -7 -216 -65 -293 -106
-190 -102 -345 -260 -429 -438 -12 -24 -21 -47 -21 -52 0 -5 -4 -9 -10 -9 -5
0 -10 -8 -10 -18 0 -10 -3 -22 -7 -26 -5 -4 -9 -12 -9 -17 -1 -5 -2 -13 -3
-19 0 -5 -5 -10 -10 -10 -5 0 -5 19 0 43 5 23 11 60 14 82 3 22 8 60 12 85 3
25 7 54 9 65 9 69 14 103 18 124 3 13 8 49 12 80 8 69 7 67 54 91 48 24 157
130 199 192 34 51 90 167 96 200 3 12 9 35 14 52 14 44 24 146 23 251 0 131
-13 222 -49 345 -24 85 -117 289 -157 345 -11 17 -21 32 -21 35 -1 10 -37 60
-44 60 -3 0 -38 -35 -78 -77z"/>
<path d="M3393 2622 l-23 -3 0 -1160 0 -1159 585 0 585 0 0 1160 0 1160 -22 1
c-132 6 -147 4 -150 -16 -2 -11 -3 -494 -3 -1072 0 -712 -3 -1054 -10 -1056
-9 -3 -282 -2 -295 2 -3 0 -5 483 -5 1071 0 944 -2 1070 -15 1071 -49 3 -151
1 -156 -3 -3 -3 -6 -487 -7 -1074 l-2 -1069 -162 0 c-103 -1 -164 3 -166 10
-2 5 -3 488 -3 1073 1 1055 1 1062 -19 1063 -11 0 -40 1 -65 2 -25 1 -55 1
-67 -1z"/>
<path d="M5045 2605 c-6 -27 -15 -88 -30 -190 -3 -22 -8 -56 -11 -75 -3 -19
-7 -51 -10 -70 -2 -19 -9 -60 -14 -90 -5 -30 -12 -75 -15 -100 -11 -76 -16
-114 -22 -145 -3 -16 -6 -41 -8 -55 -2 -14 -8 -54 -13 -90 -6 -36 -13 -83 -17
-105 -3 -22 -10 -71 -16 -110 -6 -38 -12 -81 -14 -95 -2 -14 -8 -54 -13 -90
-6 -36 -13 -81 -16 -100 -7 -49 -17 -111 -21 -140 -14 -87 -25 -161 -30 -200
-3 -25 -8 -58 -12 -75 -3 -16 -7 -41 -8 -55 -4 -36 -14 -100 -21 -135 -3 -16
-7 -43 -9 -60 -1 -16 -5 -46 -9 -65 -3 -19 -8 -53 -12 -75 -3 -22 -7 -49 -9
-60 -2 -11 -6 -44 -10 -72 l-7 -53 95 0 c107 0 101 -4 112 86 8 61 12 89 15
89 1 0 3 20 5 45 9 94 -11 86 214 85 110 0 202 -2 204 -5 3 -3 8 -23 11 -45 4
-23 9 -52 11 -65 3 -14 8 -45 11 -70 3 -25 7 -54 9 -65 2 -11 4 -28 4 -37 1
-16 13 -18 101 -18 l100 0 -4 27 c-3 14 -8 47 -12 72 -4 25 -8 55 -11 66 -2
11 -6 39 -8 63 -2 23 -6 50 -9 60 -3 9 -8 37 -11 62 -2 25 -7 54 -9 65 -4 19
-14 87 -21 145 -5 37 -14 97 -26 170 -11 71 -14 92 -24 160 -4 25 -9 59 -11
75 -3 17 -7 41 -9 55 -2 14 -8 54 -14 90 -10 59 -13 82 -26 175 -2 17 -7 48
-10 70 -4 22 -8 52 -11 68 -2 15 -6 39 -8 55 -3 15 -8 47 -11 71 -4 24 -9 58
-11 75 -2 17 -5 42 -8 56 -2 14 -8 48 -12 75 -4 28 -9 57 -10 65 -2 8 -6 35
-9 60 -3 25 -7 56 -10 70 -2 14 -7 42 -10 63 -7 54 -15 101 -30 200 -8 49 -13
94 -12 99 1 6 -36 11 -96 12 -90 1 -98 -1 -102 -19z m109 -710 c10 -76 16
-115 26 -175 5 -30 12 -73 15 -95 3 -23 7 -50 9 -60 4 -25 15 -98 21 -149 6
-44 13 -88 20 -126 3 -14 7 -41 9 -60 9 -67 18 -135 22 -155 3 -11 7 -38 10
-60 3 -22 9 -65 14 -95 5 -30 12 -74 15 -96 l6 -42 -177 -1 -176 -1 6 58 c3
31 7 66 9 77 3 11 8 43 11 70 4 28 9 57 11 65 3 8 7 35 9 60 3 25 12 88 20
140 8 52 17 113 20 135 4 22 9 53 12 69 4 16 8 45 9 65 2 20 4 36 5 36 1 0 3
9 4 20 3 27 16 106 21 136 3 13 7 42 10 64 3 22 8 56 11 75 2 19 6 44 9 55 2
11 4 26 4 34 2 27 9 6 15 -44z"/>
</g>
</svg>
