<svg xmlns="http://www.w3.org/2000/svg" xmlns:xlink="http://www.w3.org/1999/xlink"><symbol viewBox="0 0 448 512" fill="currentColor" id="icon-ig"><!--! Font Awesome Pro 6.4.0 by @fontawesome - https://fontawesome.com License - https://fontawesome.com/license (Commercial License) Copyright 2023 Fonticons, Inc.--><path d="M224.1 141c-63.6 0-114.9 51.3-114.9 114.9s51.3 114.9 114.9 114.9S339 319.5 339 255.9 287.7 141 224.1 141zm0 189.6c-41.1 0-74.7-33.5-74.7-74.7s33.5-74.7 74.7-74.7 74.7 33.5 74.7 74.7-33.6 74.7-74.7 74.7zm146.4-194.3c0 14.9-12 26.8-26.8 26.8-14.9 0-26.8-12-26.8-26.8s12-26.8 26.8-26.8 26.8 12 26.8 26.8zm76.1 27.2c-1.7-35.9-9.9-67.7-36.2-93.9-26.2-26.2-58-34.4-93.9-36.2-37-2.1-147.9-2.1-184.9 0-35.8 1.7-67.6 9.9-93.9 36.1s-34.4 58-36.2 93.9c-2.1 37-2.1 147.9 0 184.9 1.7 35.9 9.9 67.7 36.2 93.9s58 34.4 93.9 36.2c37 2.1 147.9 2.1 184.9 0 35.9-1.7 67.7-9.9 93.9-36.2 26.2-26.2 34.4-58 36.2-93.9 2.1-37 2.1-147.8 0-184.8zM398.8 388c-7.8 19.6-22.9 34.7-42.6 42.6-29.5 11.7-99.5 9-132.1 9s-102.7 2.6-132.1-9c-19.6-7.8-34.7-22.9-42.6-42.6-11.7-29.5-9-99.5-9-132.1s-2.6-102.7 9-132.1c7.8-19.6 22.9-34.7 42.6-42.6 29.5-11.7 99.5-9 132.1-9s102.7-2.6 132.1 9c19.6 7.8 34.7 22.9 42.6 42.6 11.7 29.5 9 99.5 9 132.1s2.7 102.7-9 132.1z"/></symbol><symbol xml:space="preserve" fill="currentColor" viewBox="0 0 80.4 130.227" id="icon-leaf"><path d="M556.156 662.867c-16.851-1.789-32.761-3.48-47.754-8.031-68.914-20.926-114.64-66.492-136.035-135.375 2.403 16.797 4.77 33.598 7.094 50.394 3.289 23.75 5.758 36.563 8.73 60.754 36.977 16.243 62.973 59.461 69.305 100.157l.039.32c8.461 74.23-11.234 123.477-43.43 174.582l-5.226 8.305-6.969-6.91c-35.488-35.196-73-81.973-82.129-162.079-5.765-50.492 18.211-93.144 44.27-112.996-1.656-13.449-1.731-13.543-3.535-26.972-6.114-45.426-12.903-90.758-19.918-136.055-3.285 19.434-7.403 38.949-15.477 56.769-26.375 58.176-75.098 93.575-148.961 108.215l-10.719 2.125 1.383-10.84c1.176-9.207 1.969-17.863 2.723-26.093 1.551-16.875 3.012-32.821 7.351-47.883 20.153-70.004 65.809-116.688 135.711-138.762 5.02-1.59 9.278-2.226 12.887-2.226 2.309 0 4.258.324 6.055.761-8.496-52.898-17.321-105.761-27.336-158.39a3006.398 3006.398 0 0 0-3.629-18.598c-3.289 19.516-7.406 39.125-15.52 57.024-26.375 58.175-75.097 93.566-148.961 108.203l-10.718 2.129 1.383-10.844c1.175-9.203 1.968-17.875 2.726-26.113 1.547-16.868 3.008-32.805 7.34-47.864 20.16-70 65.824-116.687 135.719-138.761 5.019-1.59 9.277-2.227 12.886-2.227.254 0 .446.051.692.059-7.367-21.165-17.465-41.497-29.535-60.196-25.489-39.476-62.766-74.304-110.184-83.035-46.914-8.64-94.875-1.672-142.176-3.078-6.8-.203-3.761-10.95-2.148-14.238C4.875 9.414 10.582 3.496 17.328 3.699 60.422 4.98 103.691-.457 146.656 4.82c19.742 2.426 39.489 7.348 56.805 17.414 19.242 11.188 36.23 26.16 50.828 42.887a244.753 244.753 0 0 1 19.297 25.262c3.562-2.637 10.094-5.703 22.394-8.824 21.696-5.489 38.586-7.34 54.411-7.34 6.816 0 13.441.34 20.156.883 52.898 4.304 94.219 32.441 126.344 86.011l5.617 9.375-10.668 2.364c-7.438 1.64-14.348 3.433-20.918 5.132-13.57 3.512-26.399 6.825-39.41 7.661-54.524 3.488-99.989-14.688-135.426-53.926 11.977 27.144 20.023 56.043 25.969 85.816 3.609 18.098 7.05 36.231 10.414 54.387 5.011-1.137 12.148-1.945 22.547-2 .754-.012 1.492-.012 2.238-.012 37.418 0 61.926 5.621 87.031 14.035 60.567 20.289 100.758 65.141 122.867 137.118l3.207 10.453-10.921-.27c-9.282-.23-17.989-.133-26.25-.047-16.954.184-32.954.36-48.372-2.414-64.535-11.605-112.324-45.781-142.464-101.543 8.957 51.86 17.132 103.879 24.777 155.946 2.851-1.243 7.473-2.243 15.277-2.243 4.203 0 9.328.282 15.586.985 38.434 4.277 62.586 12.816 87.031 24.328 57.786 27.215 92.477 76.441 106.04 150.5l1.968 10.75-10.812-1.539c-9.192-1.309-17.848-2.227-26.063-3.102" transform="matrix(.13333 0 0 -.13333 0 126.227)"/></symbol><symbol viewBox="0 0 448 512" fill="currentColor" id="icon-vk"><!--! Font Awesome Pro 6.4.0 by @fontawesome - https://fontawesome.com License - https://fontawesome.com/license (Commercial License) Copyright 2023 Fonticons, Inc.--><path d="M31.49 63.49C0 94.982 0 145.672 0 247.04v17.92c0 101.369 0 152.059 31.49 183.549C62.982 480 113.672 480 215.04 480h17.92c101.369 0 152.059 0 183.549-31.491C448 417.019 448 366.329 448 264.96v-17.92c0-101.369 0-152.059-31.491-183.55C385.019 32 334.329 32 232.96 32h-17.92C113.671 32 62.981 32 31.49 63.49ZM75.6 168.268h51.147c1.68 85.493 39.386 121.706 69.253 129.173V168.267h48.16V242c29.493-3.173 60.48-36.773 70.933-73.733h48.16a142.258 142.258 0 0 1-65.52 92.96 147.348 147.348 0 0 1 76.72 93.52H321.44a92.154 92.154 0 0 0-77.28-66.64v66.64h-5.787c-102.106 0-160.346-70-162.773-186.48Z"/></symbol><symbol xml:space="preserve" fill="currentColor" viewBox="0 0 1000 960" id="logo-jiva"><path d="M576.778 286.671c-17.38 1.848-33.778 3.591-49.234 8.285-71.872 21.822-119.322 69.589-141.05 141.986-.22.715-.617 1.584-1.088 2.504 3.116-21.664 6.19-43.327 9.193-64.984 3.392-24.49 7.432-49.367 10.5-74.31 38.126-16.748 63.425-49.638 69.956-91.598l.041-.33c8.722-76.536-11.586-127.304-44.78-179.995l-5.388-8.569-7.188 7.124c-36.586 36.285-75.264 84.522-84.676 167.111-5.947 52.058 20.48 82.273 47.352 102.745a3575.697 3575.697 0 0 1-5.355 41.567c-6.296 46.835-13.299 93.578-20.536 140.283-3.384-20.038-7.627-40.163-15.952-58.537-27.197-59.982-77.43-96.478-153.586-111.574l-11.05-2.19 1.419 11.176c1.217 9.492 2.028 18.42 2.807 26.905 1.599 17.4 3.108 33.837 7.587 49.368 20.771 72.178 67.847 120.312 139.922 143.069 5.177 1.641 9.566 2.298 13.29 2.298 2.378 0 4.382-.336 6.24-.787-8.763 54.54-17.858 109.042-28.187 163.31-1.217 6.392-2.483 12.785-3.74 19.175-3.392-20.123-7.636-40.341-16.001-58.794-27.198-59.982-77.43-96.471-153.586-111.565l-11.051-2.196 1.428 11.182c1.209 9.493 2.028 18.43 2.807 26.924 1.599 17.392 3.1 33.825 7.57 49.349 20.78 72.174 67.864 120.313 139.931 143.069 5.177 1.639 9.566 2.298 13.29 2.298.26 0 .455-.057.706-.064-7.594 21.822-18.004 42.785-30.45 62.062-26.273 40.708-64.716 76.618-113.602 85.616-48.375 8.91-97.82 1.721-146.592 3.173-7.01.212-3.879 11.296-2.215 14.687 2.872 5.85 8.763 11.958 15.716 11.75 44.431-1.326 89.041 4.281 133.342-1.161 20.358-2.5 40.707-7.572 58.566-17.949 19.846-11.54 37.356-26.978 52.407-44.22a252.987 252.987 0 0 0 19.895-26.046c3.675 2.72 10.402 5.876 23.092 9.096 22.361 5.654 39.782 7.569 56.099 7.569 7.026 0 13.858-.35 20.78-.916 54.54-4.431 97.146-33.445 130.266-88.679l5.793-9.666-11.002-2.431c-7.667-1.696-14.791-3.544-21.566-5.293-13.997-3.623-27.214-7.036-40.634-7.902-56.22-3.594-103.094 15.147-139.63 55.602 12.348-27.99 20.649-57.782 26.775-88.482a4193.016 4193.016 0 0 0 9.314-48.293c5.201 1.345 12.942 2.333 24.666 2.397.78.009 1.542.009 2.313.009 38.581 0 63.847-5.793 89.73-14.469 62.452-20.918 103.89-67.16 126.69-141.373l3.302-10.776-11.262.276c-9.575.237-18.549.135-27.068.047-17.477-.19-33.972-.37-49.867 2.488-68.035 12.238-118.032 48.778-148.962 108.58 9.623-54.943 18.346-110.072 26.5-165.256 2.791 1.534 7.635 2.9 16.869 2.9 4.332 0 9.623-.295 16.065-1.014 39.628-4.415 64.537-13.217 89.739-25.087 59.58-28.059 95.345-78.815 109.333-155.173l2.028-11.08-11.148 1.585c-9.477 1.35-18.402 2.297-26.873 3.194M936.893.942h-37.972v470.394h37.972V.942M738.218 807.004l-41.234-319.1h-38.046l60.78 470.394h36.983l60.197-465.814.592-4.58h-38.046l-41.226 319.1M945.656 857.719h-56.488l28.236-218.537 28.252 218.537zm-9.76-369.815h-36.983l-60.196 465.808-.585 4.586h38.038l8.065-61.64h66.347l8.065 61.64h38.037l-60.788-470.394M698.145 34.89h81.268v318.714c0 35-6.71 60.568-18.89 71.99-5.711 5.35-12.543 7.702-20.844 7.163l-.138-.009-1.12.006c-36.065-1.87-40.576-42.109-40.495-76.954l.008-51.07-37.973-8.113v48.873c0 24.307 0 82.995 27.263 109.166 11.846 11.365 27.635 17.114 46.84 17.114 1.364 0 2.743-.028 4.139-.088h1.33c20.382 0 37.08-6.355 49.616-18.881 19.01-18.985 28.252-51.434 28.252-99.197V34.89h.13V.406H698.145V34.89"/></symbol><symbol xml:space="preserve" fill="currentColor" viewBox="0 0 141.4 126.227" id="logo-soul"><path d="m703.172 569.348 17.586 344.402h63.644V539.988h-86.379c3.415 8.223 5.141 18.082 5.149 29.36zm-32.762-62.352h136.926V463.41h36.687v76.578h-22.929v406.75H685.906l-19.754-372.925c-.629-20.184-10.679-31.254-30.714-33.84l-1.715-.223v-76.34h36.687v43.586M980.926 557.531l79.564 389.207h-40.45l-51.278-250.386-54.824 250.386h-40.465l75.843-345.23-8.613-42.887c-10.867-36.476-32.723-56.433-64.961-59.316l-1.793-.16V463.41h1.969c52.234 0 87.57 31.668 105.008 94.121M820.938 32.754h-58.606v403.473h-32.754V32.754h-63.215v403.473h-32.754V0h220.082v436.227h-32.753V32.754M933.402 90.39 967 313.013l33.6-222.621Zm15.594 345.837L883.488 2.257 883.141 0h36.613l8.812 57.637h76.874L1014.25 0h36.6L985 436.227h-36.004M556.156 662.867c-16.851-1.789-32.761-3.48-47.754-8.031-68.914-20.926-114.64-66.492-136.035-135.375 2.403 16.797 4.77 33.598 7.094 50.394 3.289 23.75 5.758 36.563 8.73 60.754 36.977 16.243 62.973 59.461 69.305 100.157l.039.32c8.461 74.23-11.234 123.477-43.43 174.582l-5.226 8.305-6.969-6.91c-35.488-35.196-73-81.973-82.129-162.079-5.765-50.492 18.211-93.144 44.27-112.996-1.656-13.449-1.731-13.543-3.535-26.972-6.114-45.426-12.903-90.758-19.918-136.055-3.285 19.434-7.403 38.949-15.477 56.769-26.375 58.176-75.098 93.575-148.961 108.215l-10.719 2.125 1.383-10.84c1.176-9.207 1.969-17.863 2.723-26.093 1.551-16.875 3.012-32.821 7.351-47.883 20.153-70.004 65.809-116.688 135.711-138.762 5.02-1.59 9.278-2.226 12.887-2.226 2.309 0 4.258.324 6.055.761-8.496-52.898-17.321-105.761-27.336-158.39a3006.398 3006.398 0 0 0-3.629-18.598c-3.289 19.516-7.406 39.125-15.52 57.024-26.375 58.175-75.097 93.566-148.961 108.203l-10.718 2.129 1.383-10.844c1.175-9.203 1.968-17.875 2.726-26.113 1.547-16.868 3.008-32.805 7.34-47.864 20.16-70 65.824-116.687 135.719-138.761 5.019-1.59 9.277-2.227 12.886-2.227.254 0 .446.051.692.059-7.367-21.165-17.465-41.497-29.535-60.196-25.489-39.476-62.766-74.304-110.184-83.035-46.914-8.64-94.875-1.672-142.176-3.078-6.8-.203-3.761-10.95-2.148-14.238C4.875 9.414 10.582 3.496 17.328 3.699 60.422 4.98 103.691-.457 146.656 4.82c19.742 2.426 39.489 7.348 56.805 17.414 19.242 11.188 36.23 26.16 50.828 42.887a244.753 244.753 0 0 1 19.297 25.262c3.562-2.637 10.094-5.703 22.394-8.824 21.696-5.489 38.586-7.34 54.411-7.34 6.816 0 13.441.34 20.156.883 52.898 4.304 94.219 32.441 126.344 86.011l5.617 9.375-10.668 2.364c-7.438 1.64-14.348 3.433-20.918 5.132-13.57 3.512-26.399 6.825-39.41 7.661-54.524 3.488-99.989-14.688-135.426-53.926 11.977 27.144 20.023 56.043 25.969 85.816 3.609 18.098 7.05 36.231 10.414 54.387 5.011-1.137 12.148-1.945 22.547-2 .754-.012 1.492-.012 2.238-.012 37.418 0 61.926 5.621 87.031 14.035 60.567 20.289 100.758 65.141 122.867 137.118l3.207 10.453-10.921-.27c-9.282-.23-17.989-.133-26.25-.047-16.954.184-32.954.36-48.372-2.414-64.535-11.605-112.324-45.781-142.464-101.543 8.957 51.86 17.132 103.879 24.777 155.946 2.851-1.243 7.473-2.243 15.277-2.243 4.203 0 9.328.282 15.586.985 38.434 4.277 62.586 12.816 87.031 24.328 57.786 27.215 92.477 76.441 106.04 150.5l1.968 10.75-10.812-1.539c-9.192-1.309-17.848-2.227-26.063-3.102" transform="matrix(.13333 0 0 -.13333 0 126.227)"/></symbol></svg>