<?xml version="1.0" encoding="UTF-8" standalone="no"?>
<svg
   xmlns:dc="http://purl.org/dc/elements/1.1/"
   xmlns:cc="http://creativecommons.org/ns#"
   xmlns:rdf="http://www.w3.org/1999/02/22-rdf-syntax-ns#"
   xmlns:svg="http://www.w3.org/2000/svg"
   xmlns="http://www.w3.org/2000/svg"
   viewBox="0 0 141.39999 126.22667"
   height="126.22667"
   width="141.39999"
   xml:space="preserve"
   id="svg2"
   version="1.1"><metadata
     id="metadata8"><rdf:RDF><cc:Work
         rdf:about=""><dc:format>image/svg+xml</dc:format><dc:type
           rdf:resource="http://purl.org/dc/dcmitype/StillImage" /></cc:Work></rdf:RDF></metadata><defs
     id="defs6" /><g
     transform="matrix(1.3333333,0,0,-1.3333333,0,126.22667)"
     id="g10"><g
       transform="scale(0.1)"
       id="g12"><path
         id="path14"
         style="fill:#231f20;fill-opacity:1;fill-rule:nonzero;stroke:none"
         d="m 703.172,569.348 17.586,344.402 h 63.644 V 539.988 h -86.379 c 3.415,8.223 5.141,18.082 5.149,29.36 z M 670.41,506.996 H 807.336 V 463.41 h 36.687 v 76.578 h -22.929 v 406.75 H 685.906 L 666.152,573.813 c -0.629,-20.184 -10.679,-31.254 -30.714,-33.84 l -1.715,-0.223 v -76.34 h 36.687 v 43.586" /><path
         id="path16"
         style="fill:#231f20;fill-opacity:1;fill-rule:nonzero;stroke:none"
         d="m 980.926,557.531 79.564,389.207 h -40.45 L 968.762,696.352 913.938,946.738 h -40.465 l 75.843,-345.23 -8.613,-42.887 C 929.836,522.145 907.98,502.188 875.742,499.305 l -1.793,-0.16 V 463.41 h 1.969 c 52.234,0 87.57,31.668 105.008,94.121" /><path
         id="path18"
         style="fill:#231f20;fill-opacity:1;fill-rule:nonzero;stroke:none"
         d="M 820.938,32.7539 H 762.332 V 436.227 H 729.578 V 32.7539 H 666.363 V 436.227 H 633.609 V 0 H 853.691 V 436.227 H 820.938 V 32.7539" /><path
         id="path20"
         style="fill:#231f20;fill-opacity:1;fill-rule:nonzero;stroke:none"
         d="M 933.402,90.3906 967,313.012 1000.6,90.3906 Z M 948.996,436.227 883.488,2.25781 883.141,0 h 36.613 l 8.812,57.6367 h 76.874 L 1014.25,0 h 36.6 L 985,436.227 h -36.004" /><path
         id="path22"
         style="fill:#231f20;fill-opacity:1;fill-rule:nonzero;stroke:none"
         d="m 556.156,662.867 c -16.851,-1.789 -32.761,-3.48 -47.754,-8.031 -68.914,-20.926 -114.64,-66.492 -136.035,-135.375 2.403,16.797 4.77,33.598 7.094,50.394 3.289,23.75 5.758,36.563 8.73,60.754 36.977,16.243 62.973,59.461 69.305,100.157 l 0.039,0.32 c 8.461,74.23 -11.234,123.477 -43.43,174.582 l -5.226,8.305 -6.969,-6.91 c -35.488,-35.196 -73,-81.973 -82.129,-162.079 -5.765,-50.492 18.211,-93.144 44.27,-112.996 -1.656,-13.449 -1.731,-13.543 -3.535,-26.972 -6.114,-45.426 -12.903,-90.758 -19.918,-136.055 -3.285,19.434 -7.403,38.949 -15.477,56.769 -26.375,58.176 -75.098,93.575 -148.961,108.215 l -10.719,2.125 1.383,-10.84 c 1.176,-9.207 1.969,-17.863 2.723,-26.093 1.551,-16.875 3.012,-32.821 7.351,-47.883 20.153,-70.004 65.809,-116.688 135.711,-138.762 5.02,-1.59 9.278,-2.226 12.887,-2.226 2.309,0 4.258,0.324 6.055,0.761 -8.496,-52.898 -17.321,-105.761 -27.336,-158.39 -1.184,-6.203 -2.406,-12.403 -3.629,-18.598 -3.289,19.516 -7.406,39.125 -15.52,57.024 -26.375,58.175 -75.097,93.566 -148.961,108.203 l -10.718,2.129 1.383,-10.844 c 1.175,-9.203 1.968,-17.875 2.726,-26.113 1.547,-16.868 3.008,-32.805 7.34,-47.864 20.16,-70 65.824,-116.687 135.719,-138.761 5.019,-1.59 9.277,-2.227 12.886,-2.227 0.254,0 0.446,0.051 0.692,0.059 C 278.766,154.48 268.668,134.148 256.598,115.449 231.109,75.9727 193.832,41.1445 146.414,32.4141 99.5,23.7734 51.5391,30.7422 4.23828,29.3359 -2.5625,29.1328 0.476563,18.3867 2.08984,15.0977 4.875,9.41406 10.582,3.49609 17.3281,3.69922 60.4219,4.98047 103.691,-0.457031 146.656,4.82031 c 19.742,2.42578 39.489,7.34769 56.805,17.41409 19.242,11.1875 36.23,26.1601 50.828,42.8867 7.094,8.1211 13.492,16.5586 19.297,25.2617 3.562,-2.6367 10.094,-5.7031 22.394,-8.8242 21.696,-5.4883 38.586,-7.3398 54.411,-7.3398 6.816,0 13.441,0.3398 20.156,0.8828 52.898,4.3047 94.219,32.4414 126.344,86.0114 l 5.617,9.375 -10.668,2.364 c -7.438,1.64 -14.348,3.433 -20.918,5.132 -13.57,3.512 -26.399,6.825 -39.41,7.661 -54.524,3.488 -99.989,-14.688 -135.426,-53.926 11.977,27.144 20.023,56.043 25.969,85.816 3.609,18.098 7.05,36.231 10.414,54.387 5.011,-1.137 12.148,-1.945 22.547,-2 0.754,-0.012 1.492,-0.012 2.238,-0.012 37.418,0 61.926,5.621 87.031,14.035 60.567,20.289 100.758,65.141 122.867,137.118 l 3.207,10.453 -10.921,-0.27 c -9.282,-0.23 -17.989,-0.133 -26.25,-0.047 -16.954,0.184 -32.954,0.36 -48.372,-2.414 -64.535,-11.605 -112.324,-45.781 -142.464,-101.543 8.957,51.86 17.132,103.879 24.777,155.946 2.851,-1.243 7.473,-2.243 15.277,-2.243 4.203,0 9.328,0.282 15.586,0.985 38.434,4.277 62.586,12.816 87.031,24.328 57.786,27.215 92.477,76.441 106.04,150.5 l 1.968,10.75 -10.812,-1.539 c -9.192,-1.309 -17.848,-2.227 -26.063,-3.102" /></g></g></svg>