<svg width="1000" height="960" xmlns="http://www.w3.org/2000/svg" xml:space="preserve" version="1.1">
 <desc>Created with Fabric.js 3.5.0</desc>

 <g>
  <title>Layer 1</title>
  <g id="569511" transform="matrix(6.1843 0 0 6.1843 500 479.815)">
   <g id="svg_2">
    <g id="path24" transform="matrix(0.1312 0 0 -0.1312 -30.8721 1.5757)">
     <path id="svg_3" fill-rule=" nonzero" fill=" rgb(33,29,29)" stroke-miterlimit="4" stroke-linejoin=" miter" stroke-dashoffset="0" stroke-dasharray=" none" stroke=" none" stroke-linecap=" butt" d="m329.9323,250.05372c-21.42,-2.278 -41.63,-4.426 -60.68,-10.211c-88.58,-26.895 -147.06,-85.766 -173.84,-174.993c-0.27,-0.882 -0.76,-1.953 -1.34,-3.086c3.84,26.7 7.63,53.399 11.33,80.09c4.18,30.184 9.16,60.844 12.94,91.586c46.99,20.641 78.17,61.176 86.22,112.891l0.05,0.406c10.75,94.329 -14.28,156.899 -55.19,221.839l-6.64,10.56l-8.86,-8.78c-45.09,-44.72 -92.76,-104.17 -104.36,-205.959c-7.33,-64.16 25.24,-101.398 58.36,-126.629c-2.1,-17.089 -4.3,-34.168 -6.6,-51.23c-7.76,-57.723 -16.39,-115.332 -25.31,-172.895c-4.17,24.696 -9.4,49.5 -19.66,72.145c-33.52,73.926 -95.43,118.906 -189.29,137.512l-13.62,2.699l1.75,-13.774c1.5,-11.699 2.5,-22.703 3.46,-33.16c1.97,-21.445 3.83,-41.703 9.35,-60.844c25.6,-88.957 83.62,-148.281 172.45,-176.328c6.38,-2.023 11.79,-2.832 16.38,-2.832c2.93,0 5.4,0.414 7.69,0.969c-10.8,-67.219 -22.01,-134.391 -34.74,-201.273c-1.5,-7.879 -3.06,-15.758 -4.61,-23.633c-4.18,24.801 -9.41,49.719 -19.72,72.461c-33.52,73.926 -95.43,118.898 -189.29,137.5l-13.62,2.707l1.76,-13.781c1.49,-11.7 2.5,-22.715 3.46,-33.184c1.97,-21.434 3.82,-41.688 9.33,-60.82c25.61,-88.953 83.64,-148.282 172.46,-176.328c6.38,-2.02 11.79,-2.833 16.38,-2.833c0.32,0 0.56,0.071 0.87,0.079c-9.36,-26.895 -22.19,-52.731 -37.53,-76.489c-32.38,-50.1716 -79.76,-94.4294 -140.01,-105.5192c-59.62,-10.9805 -120.56,-2.1211 -180.67,-3.9102c-8.64,-0.2617 -4.78,-13.9218 -2.73,-18.1015c3.54,-7.21097 10.8,-14.73832 19.37,-14.48051c54.76,1.63282 109.74,-5.27734 164.34,1.42969c25.09,3.08203 50.17,9.33202 72.18,22.12112c24.46,14.2226 46.04,33.25 64.59,54.5c9.01,10.3203 17.14,21.0386 24.52,32.1016c4.53,-3.352 12.82,-7.242 28.46,-11.211c27.56,-6.9687 49.03,-9.3281 69.14,-9.3281c8.66,0 17.08,0.4297 25.61,1.1289c67.22,5.4609 119.73,41.2192 160.55,109.2932l7.14,11.914l-13.56,2.996c-9.45,2.09 -18.23,4.367 -26.58,6.523c-17.25,4.465 -33.54,8.672 -50.08,9.739c-69.29,4.429 -127.06,-18.668 -172.09,-68.528c15.22,34.496 25.45,71.215 33,109.051c3.95,19.809 7.76,39.652 11.48,59.52c6.41,-1.657 15.95,-2.875 30.4,-2.954c0.96,-0.011 1.9,-0.011 2.85,-0.011c47.55,0 78.69,7.14 110.59,17.832c76.97,25.781 128.04,82.773 156.14,174.238l4.07,13.281l-13.88,-0.34c-11.8,-0.292 -22.86,-0.167 -33.36,-0.058c-21.54,0.234 -41.87,0.457 -61.46,-3.067c-83.85,-15.082 -145.47,-60.117 -183.59,-133.82c11.86,67.715 22.61,135.66 32.66,203.672c3.44,-1.891 9.41,-3.574 20.79,-3.574c5.34,0 11.86,0.363 19.8,1.25c48.84,5.441 79.54,16.289 110.6,30.918c73.43,34.582 117.51,97.137 134.75,191.246l2.5,13.656l-13.74,-1.953c-11.68,-1.664 -22.68,-2.832 -33.12,-3.937"/>
    </g>
    <g id="path26" transform="matrix(0.1312 0 0 -0.1312 67.5755 -39.4024)">
     <path id="svg_4" fill-rule=" nonzero" fill=" rgb(33,29,29)" stroke-miterlimit="4" stroke-linejoin=" miter" stroke-dashoffset="0" stroke-dasharray=" none" stroke=" none" stroke-linecap=" butt" d="m23.4,289.87302l-46.8,0l0,-579.746l46.8,0l0,579.746"/>
    </g>
    <g id="path28" transform="matrix(0.1312 0 0 -0.1312 38.5192 39.3393)">
     <path id="svg_5" fill-rule=" nonzero" fill=" rgb(33,29,29)" stroke-miterlimit="4" stroke-linejoin=" miter" stroke-dashoffset="0" stroke-dasharray=" none" stroke=" none" stroke-linecap=" butt" d="m0.00484,-103.4078l-50.82,393.281l-46.89,0l74.91,-579.74631l45.58,0l74.19,574.10131l0.73,5.645l-46.89,0l-50.81,-393.281"/>
    </g>
    <g id="path30" transform="matrix(0.1312 0 0 -0.1312 67.4948 39.3393)">
     <path id="svg_6" fill-rule=" nonzero" fill=" rgb(33,29,29)" stroke-miterlimit="4" stroke-linejoin=" miter" stroke-dashoffset="0" stroke-dasharray=" none" stroke=" none" stroke-linecap=" butt" d="m34.81523,-165.9118l-69.62,0l34.8,269.339l34.82,-269.339zm-12.03,455.785l-45.58,0l-74.19,-574.09397l-0.72,-5.65234l46.88,0l9.94,75.96871l81.77,0l9.94,-75.96871l46.88,0l-74.92,579.74631"/>
    </g>
    <g id="path32" transform="matrix(0.1312 0 0 -0.1312 38.6052 -39.4106)">
     <path id="svg_7" fill-rule=" nonzero" fill=" rgb(33,29,29)" stroke-miterlimit="4" stroke-linejoin=" miter" stroke-dashoffset="0" stroke-dasharray=" none" stroke=" none" stroke-linecap=" butt" d="m-50.03994,247.97052l100.16,0l0,-392.805c0,-43.136 -8.27,-74.648 -23.28,-88.726c-7.04,-6.594 -15.46,-9.492 -25.69,-8.828l-0.17,0.011l-1.38,-0.007c-44.45,2.304 -50.01,51.898 -49.91,94.843l0.01,62.942l-46.8,10l0,-60.235c0,-29.957 0,-102.289 33.6,-134.543c14.6,-14.007 34.06,-21.093 57.73,-21.093c1.68,0 3.38,0.035 5.1,0.109l1.49,0c0.05,0 0.1,0 0.15,0c25.12,0 45.7,7.832 61.15,23.27c23.43,23.398 34.82,63.39 34.82,122.257l0,392.805l0.16,0l0,42.5l-147.14,0l0,-42.5"/>
    </g>
   </g>
  </g>
 </g>
</svg>
